<?xml version="1.0" standalone="no"?><!DOCTYPE svg PUBLIC "-//W3C//DTD SVG 1.1//EN" "http://www.w3.org/Graphics/SVG/1.1/DTD/svg11.dtd"><svg t="1557365874611" class="icon" style="" viewBox="0 0 1024 1024" version="1.1" xmlns="http://www.w3.org/2000/svg" p-id="18078" xmlns:xlink="http://www.w3.org/1999/xlink" width="200" height="200"><defs><style type="text/css"></style></defs><path d="M509 503.6m-469.5 0a469.5 469.5 0 1 0 939 0 469.5 469.5 0 1 0-939 0Z" p-id="18079"></path><path d="M337.9 483.1c-16 16-16 41.9 0 57.9l253.2 253.2c16 16 41.9 16 57.9 0s16-41.9 0-57.9L395.8 483.1c-16-16-41.9-16-57.9 0z" fill="#FFFFFF" p-id="18080"></path><path d="M337.9 540.9c16 16 41.9 16 57.9 0L649 287.7c16-16 16-41.9 0-57.9s-41.9-16-57.9 0L337.9 483c-16 16-16 41.9 0 57.9z" fill="#FFFFFF" p-id="18081"></path></svg>