<?xml version="1.0" standalone="no"?><!DOCTYPE svg PUBLIC "-//W3C//DTD SVG 1.1//EN" "http://www.w3.org/Graphics/SVG/1.1/DTD/svg11.dtd"><svg t="1557389160975" class="icon" style="" viewBox="0 0 1066 1024" version="1.1" xmlns="http://www.w3.org/2000/svg" p-id="17831" xmlns:xlink="http://www.w3.org/1999/xlink" width="208.203125" height="200"><defs><style type="text/css"></style></defs><path d="M454.604687 359.494178l-62.541725-69.272807c32.915903-5.885925 85.783581-10.111717 86.34199-10.111717l9.855151-0.754606 4.13524-8.904348c0.241474-0.603685 24.464318-53.577008 41.427855-83.610317 16.963537 29.731466 39.797907 82.402948 40.039381 83.006632l4.044687 9.357112 10.141901 0.754605c0.5735 0 54.844746 4.074871 87.896478 9.658954l-62.360619 69.57465 9.055269 95.533088-88.439794-41.503316s-88.047399 41.654237-88.258688 41.805158z m-101.871776 664.505822a46.785556 46.785556 0 0 1-46.679912-46.785556c0-25.807517 12.813206-33.655416 46.679912-50.709507a1040.088195 1040.088195 0 0 1 133.972704-45.880029V768.188651c-133.08227-24.600147-233.580663-149.562859-277.211967-268.337804a120.118143 120.118143 0 0 1-15.092115 1.056449c-119.227708 0-193.616743-97.042299-193.616743-216.420929 0-14.941194-0.362211-28.222255-0.664053-39.843184-1.101724-41.95608 7.742255-68.367281 24.871805-86.025055C47.630715 135.376271 61.72675 135.829035 182.161828 135.829035a148.596964 148.596964 0 0 1 147.812173-135.829035h406.732499a148.596964 148.596964 0 0 1 147.812174 135.829035c120.495446 0 136.432719 2.716581 159.055799 25.958437 17.12955 17.506853 24.147384 40.899632 22.985291 82.855711-0.301842 11.620929-0.648961 24.90199-0.648961 39.843184 0 119.378629-74.434311 216.420929-193.616743 216.420929a120.646367 120.646367 0 0 1-15.092115-1.056449c-43.646396 118.774945-144.114606 243.737657-277.196875 268.337804v112.436257a914.959469 914.959469 0 0 1 133.987797 45.880029c24.811437 11.922771 46.664819 24.90199 46.664819 50.709507a46.785556 46.785556 0 0 1-46.664819 46.785556h-361.305233z m-22.638173-930.579808a61.409816 61.409816 0 0 0-55.010759 55.086219v203.894473c0 146.9972 119.227708 326.744289 258.377008 326.744289s258.3921-179.747089 258.392101-326.744289V148.506411a60.549565 60.549565 0 0 0-55.025851-55.086219h-406.732499z m555.087989 313.463227c61.741842-6.489609 87.534267-58.859248 87.534266-122.397052 0-55.388062-12.994311-55.388062-45.819661-55.388062l-41.669329 0.150921v177.634193zM140.069919 229.098305c-46.649727 0-45.819661 0-45.819661 55.388062 0 63.537804 25.76224 115.907443 87.534267 122.397052V229.249226z" p-id="17832"></path></svg>